# xmcd
#
# Track frame offsets:
#	150
#	14280
#	28677
#	48375
#	68647
#	88627
#	104250
#	114940
#	135112
#	151647
#	170760
#	182532
#
# Disc length: 2604 seconds
#
# Revision: 3
# Processed by: cddbd v1.4PL0 Copyright (c) Steve Scherf et al.
# Submitted via: audiograbber 1.81.03
#
DISCID=860a2a0c
DTITLE=Billy Gilman - Dare To Dream
DYEAR=2001
DGENRE=Country
TTITLE0=She's My Girl
TTITLE1=Our First Kiss
TTITLE2=Elisabeth
TTITLE3=I've Got To Make It To Summer
TTITLE4=My Time On Earth
TTITLE5=You Don't You Won't
TTITLE6=She's Everything You Want
TTITLE7=God's Alive And Well
TTITLE8=The Woman In My Life
TTITLE9=Almost Love
TTITLE10=Some Things I Know
TTITLE11=Shamey, Shamey, Shame
EXTD=ID3G:   2
EXTT0=
EXTT1=
EXTT2=
EXTT3=
EXTT4=
EXTT5=
EXTT6=
EXTT7=
EXTT8=
EXTT9=
EXTT10=
EXTT11=
PLAYORDER=
